<?xml version="1.0" encoding="UTF-8"?>
<svg width="52px" height="52px" viewBox="0 0 52 52" version="1.1" xmlns="http://www.w3.org/2000/svg" xmlns:xlink="http://www.w3.org/1999/xlink">
    <!-- Generator: Sketch 54.1 (76490) - https://sketchapp.com -->
    <title>battlenet</title>
    <desc>Created with Sketch.</desc>
    <g id="Page-1" stroke="none" stroke-width="1" fill="none" fill-rule="evenodd">
        <g id="Artboard" transform="translate(-153.000000, -151.000000)" fill-rule="nonzero">
            <g id="battlenet" transform="translate(153.000000, 151.000000)">
                <path d="M35.086,15.373 C34.34,15.056 34.463,15.126 34.463,15.126 C34.463,15.126 34.383,15.038 35.532,15.942 C37.282,17.319 38.439,19.545 39.064,21.71 C39.832,24.378 39.268,28.079 36.836,31.763 C31.651,39.619 23.278,44.208 21.61,41.485 C20.764,40.104 23.536,37.363 23.536,37.363 L21.861,38.273 C21.861,38.273 18.93,41.77 19.466,43.901 C20.381,47.537 30.458,45.072 37.751,33.155 C44.3,22.458 37.053,16.212 35.086,15.373 Z" id="bot-down-sml" fill="#00B2FF"></path>
                <path d="M35.047,15.276 C34.301,14.958 34.148,14.983 34.148,14.983 C34.148,14.983 34.214,14.958 35.363,15.862 C37.113,17.239 38.401,19.448 39.025,21.614 C39.794,24.281 39.23,27.983 36.797,31.668 C31.612,39.524 23.24,44.112 21.571,41.39 C20.725,40.008 23.496,37.268 23.496,37.268 L21.821,38.177 C21.821,38.177 18.89,41.674 19.427,43.805 C20.341,47.44 30.418,44.975 37.712,33.059 C44.26,22.36 37.014,16.115 35.047,15.276 Z" id="top-down-sml" fill="#68D1FF"></path>
                <path d="M32.708,34.727 C32.708,34.727 32.823,34.702 31.466,35.244 C29.399,36.071 26.893,35.961 24.704,35.418 C22.01,34.751 19.087,32.411 17.112,28.463 C12.901,20.045 13.113,10.499 16.304,10.415 C17.925,10.373 18.912,14.144 18.912,14.144 L18.962,12.239 C18.962,12.239 17.399,7.951 15.286,7.35 C11.68,6.324 8.776,16.284 15.45,28.558 C21.441,39.578 30.473,36.426 32.183,35.141 C32.831,34.655 32.708,34.727 32.708,34.727 Z" id="bot-left-sml" fill="#00B2FF"></path>
                <path d="M31.626,35.138 C29.558,35.964 27.001,35.976 24.814,35.433 C22.12,34.766 19.197,32.426 17.221,28.478 C13.01,20.059 13.222,10.513 16.414,10.43 C18.034,10.388 19.022,14.159 19.022,14.159 L19.072,12.254 C19.072,12.254 17.508,7.967 15.395,7.366 C11.789,6.34 8.885,16.3 15.558,28.574 C21.55,39.594 30.582,36.441 32.291,35.157 C32.93,34.678 32.992,34.53 32.994,34.525 C32.991,34.532 32.928,34.618 31.626,35.138 Z" id="top-left-sml" fill="#68D1FF"></path>
                <path d="M30.536,11.464 C17.997,11.143 16.21,20.541 16.468,22.664 C16.566,23.469 16.565,23.327 16.565,23.327 C16.565,23.327 16.529,23.44 16.739,21.994 C17.056,19.791 18.406,17.675 19.969,16.051 C21.894,14.052 25.382,12.69 29.789,12.954 C39.185,13.516 47.345,18.474 45.822,21.279 C45.048,22.702 41.288,21.672 41.288,21.672 L42.913,22.668 C42.913,22.668 47.407,23.458 48.985,21.928 C51.676,19.317 44.503,11.823 30.536,11.464 Z" id="bot-rght-sml" fill="#00B2FF"></path>
                <path d="M30.473,11.552 C17.933,11.231 16.148,20.629 16.405,22.752 C16.501,23.545 16.598,23.673 16.601,23.677 C16.598,23.672 16.554,23.575 16.755,22.185 C17.073,19.981 18.341,17.761 19.905,16.138 C21.83,14.139 25.318,12.777 29.725,13.04 C39.121,13.603 47.281,18.56 45.757,21.365 C44.984,22.789 41.225,21.759 41.225,21.759 L42.85,22.755 C42.85,22.755 47.345,23.545 48.922,22.015 C51.612,19.405 44.44,11.909 30.473,11.552 Z" id="top-rght-sml" fill="#68D1FF"></path>
                <path d="M33.273,11.685 C32.408,10.042 29.78,5.264 27.186,2.724 C23.373,-1.01 21.282,0.589 20.453,1.483 C15.694,6.613 18.626,20.774 21.641,29.297 C22.088,30.563 22.576,31.804 23.09,33.015 C23.313,32.925 23.642,32.786 23.993,32.617 C24.38,32.429 24.675,32.272 24.852,32.175 C24.739,31.854 24.625,31.531 24.514,31.203 C21.741,23.065 19.468,9.596 24.11,6.341 C25.399,5.436 26.887,6.487 28.041,7.588 C29.1,8.601 30.449,10.567 31.085,11.531 L33.273,11.685 Z M29.329,42.452 L28.362,43.121 C30.392,46.361 32.393,48.954 33.964,50.581 C34.878,51.528 35.517,51.54 35.517,51.54 C34.693,50.867 32.151,47.789 29.329,42.452 Z M25.644,36.562 C25.436,36.727 25.124,36.963 24.968,37.081 C25.647,38.436 26.35,39.734 27.06,40.961 L27.177,40.892 L28.182,40.184 C27.563,38.902 26.939,37.518 26.326,36.029 C26.166,36.153 25.872,36.382 25.644,36.562 Z" id="bot-rght-lrg" fill="#00B2FF"></path>
                <path d="M32.207,11.54 C32.946,11.588 33.349,11.641 33.352,11.641 C32.458,9.947 29.859,5.246 27.294,2.734 C23.48,-1 21.389,0.6 20.56,1.494 C15.8,6.623 18.733,20.786 21.747,29.307 C22.195,30.573 22.683,31.817 23.197,33.031 C23.42,32.941 23.749,32.802 24.1,32.631 C24.487,32.443 24.782,32.286 24.96,32.189 C24.846,31.866 24.732,31.541 24.62,31.212 C21.846,23.074 19.574,9.606 24.216,6.35 C25.506,5.446 26.994,6.496 28.146,7.598 C29.186,8.591 30.502,10.501 31.154,11.485 C31.19,11.487 31.617,11.503 32.207,11.54 Z M29.434,42.443 C29.369,42.491 29.158,42.645 28.88,42.836 C28.78,42.905 28.545,43.059 28.445,43.124 C30.487,46.398 32.5,49.02 34.077,50.656 C34.991,51.602 35.698,51.634 35.698,51.634 C34.872,50.959 32.288,47.833 29.434,42.443 Z M25.731,36.567 C25.46,36.782 25.095,37.064 25.068,37.085 C25.736,38.423 26.428,39.706 27.127,40.921 C27.19,40.888 27.358,40.798 27.718,40.586 C28.06,40.385 28.242,40.266 28.309,40.223 C27.679,38.924 27.046,37.521 26.424,36.013 C26.394,36.036 26.033,36.325 25.731,36.567 Z" id="top-left-lrg" fill="#68D1FF"></path>
                <path d="M51.438,29.413 C49.375,22.727 35.644,18.186 26.756,16.536 C25.436,16.291 24.118,16.091 22.812,15.931 C22.778,16.169 22.734,16.524 22.705,16.912 C22.674,17.341 22.664,17.675 22.659,17.877 C22.993,17.938 23.33,18.003 23.67,18.07 C32.105,19.736 44.904,24.503 45.403,30.151 C45.541,31.721 43.888,32.484 42.357,32.932 C40.951,33.343 38.574,33.527 37.42,33.597 L36.195,35.416 C38.054,35.489 43.503,35.602 46.997,34.625 C52.136,33.19 51.797,30.58 51.438,29.413 Z M2.16,16.567 C0.884,16.883 0.553,17.431 0.553,17.431 C1.554,17.053 5.517,16.386 11.593,16.619 L11.516,15.441 C7.655,15.577 4.373,16.016 2.16,16.567 Z M18.346,15.527 C16.87,15.44 15.43,15.399 14.046,15.398 L14.043,15.511 L14.099,16.761 C15.508,16.865 17.008,17.017 18.591,17.23 C18.575,17.116 18.516,16.709 18.465,16.356 C18.422,16.069 18.366,15.675 18.346,15.527 Z" id="bot-rght-lrg" fill="#00B2FF"></path>
                <path d="M41.427,16.206 C40.598,17.427 39.675,18.708 38.649,20.035 C38.668,20.043 39.097,20.211 39.476,20.361 C39.794,20.487 40.207,20.654 40.258,20.675 C41.117,19.376 41.912,18.085 42.637,16.825 L42.538,16.765 L41.427,16.206 Z M36.135,23.128 C35.914,23.387 35.691,23.647 35.462,23.907 C29.802,30.378 19.274,39.08 14.133,36.688 C12.705,36.024 12.87,34.211 13.248,32.66 C13.605,31.198 14.679,28.971 15.181,27.971 L14.231,25.998 C13.29,27.484 10.381,32.253 9.463,35.832 C8.136,41 10.567,42.012 11.756,42.283 C18.577,43.84 29.375,34.219 35.249,27.347 C36.121,26.326 36.953,25.284 37.745,24.233 C37.556,24.086 37.27,23.87 36.948,23.651 C36.592,23.409 36.308,23.233 36.135,23.128 Z M47.575,4.207 C47.404,5.257 46.008,8.994 42.801,14.104 L43.864,14.608 C45.652,11.232 46.896,8.204 47.521,6.031 C47.884,4.767 47.575,4.207 47.575,4.207 Z" id="bot-down-lrg" fill="#00B2FF"></path>
                <path d="M41.373,16.115 C40.563,17.309 39.664,18.56 38.668,19.852 C38.737,19.878 39.15,20.036 39.493,20.17 C39.789,20.286 40.186,20.457 40.274,20.495 C41.101,19.243 41.869,18 42.574,16.784 C42.482,16.73 42.224,16.578 41.992,16.443 C41.737,16.295 41.462,16.158 41.373,16.115 Z M47.566,4.004 C47.394,5.057 45.979,8.856 42.739,14.022 C42.818,14.058 43.049,14.162 43.344,14.303 C43.454,14.355 43.711,14.489 43.819,14.544 C45.634,11.137 46.9,8.081 47.527,5.896 C47.891,4.632 47.566,4.004 47.566,4.004 Z M36.092,23.028 C35.87,23.287 35.646,23.547 35.418,23.808 C29.758,30.279 19.23,38.98 14.089,36.589 C12.66,35.924 12.826,34.11 13.204,32.561 C13.555,31.122 14.601,28.941 15.113,27.919 C15.09,27.874 14.896,27.498 14.641,26.979 C14.374,26.434 14.197,26.046 14.154,25.949 C13.18,27.491 10.325,32.193 9.417,35.732 C8.091,40.902 10.521,41.913 11.71,42.184 C18.533,43.742 29.331,34.12 35.204,27.248 C36.076,26.228 36.908,25.185 37.703,24.134 C37.513,23.986 37.229,23.771 36.909,23.553 C36.55,23.31 36.265,23.132 36.092,23.028 Z" id="top-down-lrg" fill="#68D1FF"></path>
                <path d="M51.374,29.502 C49.312,22.815 35.581,18.273 26.692,16.624 C25.374,16.379 24.056,16.18 22.748,16.019 C22.714,16.256 22.67,16.612 22.642,17 C22.611,17.429 22.6,17.764 22.596,17.966 C22.93,18.028 23.267,18.091 23.607,18.159 C32.041,19.826 44.841,24.592 45.34,30.24 C45.479,31.809 43.825,32.572 42.294,33.02 C40.918,33.422 38.611,33.608 37.432,33.681 L37.434,33.684 C37.434,33.684 37.175,34.071 36.831,34.582 C36.44,35.165 36.197,35.501 36.197,35.501 L36.189,35.507 C38.101,35.579 43.474,35.679 46.934,34.713 C52.073,33.278 51.734,30.667 51.374,29.502 Z M18.305,15.61 C16.843,15.522 15.416,15.478 14.043,15.474 C14.039,15.572 14.032,15.819 14.038,16.156 C14.045,16.553 14.056,16.773 14.06,16.856 C15.471,16.96 16.971,17.111 18.551,17.322 C18.547,17.297 18.469,16.809 18.41,16.407 C18.333,15.881 18.309,15.648 18.305,15.61 Z M11.471,15.512 C7.575,15.64 4.262,16.074 2.039,16.627 C0.763,16.945 0.381,17.541 0.381,17.541 C1.384,17.162 5.417,16.483 11.561,16.715 C11.553,16.631 11.529,16.385 11.503,16.056 C11.494,15.934 11.478,15.636 11.471,15.512 Z" id="top-rght-lrg" fill="#68D1FF"></path>
            </g>
        </g>
    </g>
</svg>